<?xml version="1.0" encoding="UTF-8" standalone="no"?>
<svg
   xmlns:dc="http://purl.org/dc/elements/1.1/"
   xmlns:cc="http://creativecommons.org/ns#"
   xmlns:rdf="http://www.w3.org/1999/02/22-rdf-syntax-ns#"
   xmlns:svg="http://www.w3.org/2000/svg"
   xmlns="http://www.w3.org/2000/svg"
   xmlns:sodipodi="http://sodipodi.sourceforge.net/DTD/sodipodi-0.dtd"
   xmlns:inkscape="http://www.inkscape.org/namespaces/inkscape"
   sodipodi:docname="cardano-logo.svg"
   inkscape:version="1.0beta2 (2b71d25, 2019-12-03)"
   id="svg8"
   version="1.1"
   viewBox="0 0 71.9189 66.454254"
   height="66.454254mm"
   width="71.9189mm">
  <defs
     id="defs2" />
  <sodipodi:namedview
     inkscape:window-maximized="0"
     inkscape:window-y="25"
     inkscape:window-x="0"
     inkscape:window-height="747"
     inkscape:window-width="1280"
     fit-margin-bottom="0"
     fit-margin-right="0"
     fit-margin-left="0"
     fit-margin-top="0"
     showgrid="false"
     inkscape:document-rotation="0"
     inkscape:current-layer="layer1"
     inkscape:document-units="mm"
     inkscape:cy="145.58282"
     inkscape:cx="316.42369"
     inkscape:zoom="0.35"
     inkscape:pageshadow="2"
     inkscape:pageopacity="0.0"
     borderopacity="1.0"
     bordercolor="#666666"
     pagecolor="#ffffff"
     id="base" />
  <metadata
     id="metadata5">
    <rdf:RDF>
      <cc:Work
         rdf:about="">
        <dc:format>image/svg+xml</dc:format>
        <dc:type
           rdf:resource="http://purl.org/dc/dcmitype/StillImage" />
        <dc:title></dc:title>
      </cc:Work>
    </rdf:RDF>
  </metadata>
  <g
     transform="translate(-22.112898,-109.64788)"
     id="layer1"
     inkscape:groupmode="layer"
     inkscape:label="Layer 1">
    <g
       transform="translate(89.958333,-18.89881)"
       id="g1060">
      <path
         inkscape:connector-curvature="0"
         id="path833"
         fill="#0A73C4"
         d="m -48.139201,161.52378 a 4.8524583,4.8524583 0 0 0 4.561417,5.12233 h 0.264583 a 4.8418749,4.8418749 0 1 0 -4.839229,-5.11969 z"
         style="stroke-width:0.264583" />
      <path
         inkscape:connector-curvature="0"
         id="path835"
         fill="#0A73C4"
         d="m -66.194367,160.29611 a 1.5636875,1.5636875 0 1 0 1.473729,1.651 1.5610416,1.5610416 0 0 0 -1.473729,-1.651 z"
         style="stroke-width:0.264583" />
      <path
         inkscape:connector-curvature="0"
         id="path837"
         fill="#0A73C4"
         d="m -48.446117,133.42238 a 1.5663333,1.5663333 0 1 0 -2.116667,-0.69321 1.5689791,1.5689791 0 0 0 2.116667,0.69321 z"
         style="stroke-width:0.264583" />
      <path
         inkscape:connector-curvature="0"
         id="path839"
         fill="#0A73C4"
         d="m -43.532805,141.98959 a 2.4182916,2.4182916 0 1 0 -3.249083,-1.07156 2.4182916,2.4182916 0 0 0 3.249083,1.07156 z"
         style="stroke-width:0.264583" />
      <path
         inkscape:connector-curvature="0"
         id="path841"
         fill="#0A73C4"
         d="m -60.066617,147.88186 a 1.9923125,1.9923125 0 1 0 -0.5715,-2.75696 1.9923125,1.9923125 0 0 0 0.5715,2.75696 z"
         style="stroke-width:0.264583" />
      <path
         inkscape:connector-curvature="0"
         id="path843"
         fill="#0A73C4"
         d="m -57.121805,159.41505 a 2.4182916,2.4182916 0 1 0 2.278063,2.55323 2.4209375,2.4209375 0 0 0 -2.278063,-2.55323 z"
         style="stroke-width:0.264583" />
      <path
         inkscape:connector-curvature="0"
         id="path845"
         fill="#0A73C4"
         d="m -59.802034,175.67369 a 1.9923125,1.9923125 0 1 0 2.677583,0.88107 1.9923125,1.9923125 0 0 0 -2.677583,-0.88107 z"
         style="stroke-width:0.264583" />
      <path
         inkscape:connector-curvature="0"
         id="path847"
         fill="#0A73C4"
         d="m -50.401388,154.41707 a 2.8469166,2.8469166 0 1 0 -0.820209,-3.94229 2.8442708,2.8442708 0 0 0 0.820209,3.94229 z"
         style="stroke-width:0.264583" />
      <path
         inkscape:connector-curvature="0"
         id="path849"
         fill="#0A73C4"
         d="m -20.577555,141.79909 a 2.4209375,2.4209375 0 1 0 -0.703792,-3.35227 2.4182916,2.4182916 0 0 0 0.703792,3.35227 z"
         style="stroke-width:0.264583" />
      <path
         inkscape:connector-curvature="0"
         id="path851"
         fill="#0A73C4"
         d="m -15.613972,133.25834 a 1.5663333,1.5663333 0 1 0 -0.452437,-2.16694 1.5663333,1.5663333 0 0 0 0.452437,2.16694 z"
         style="stroke-width:0.264583" />
      <path
         inkscape:connector-curvature="0"
         id="path853"
         fill="#0A73C4"
         d="m -20.196555,156.91473 a 4.8432394,4.8432394 0 1 0 -0.555625,9.67053 c 0.0926,0 0.187854,0 0.280458,0 a 4.8418749,4.8418749 0 0 0 3.608917,-8.06715 4.7836666,4.7836666 0 0 0 -3.33375,-1.60338 z"
         style="stroke-width:0.264583" />
      <path
         inkscape:connector-curvature="0"
         id="path855"
         fill="#0A73C4"
         d="m -41.942659,154.08105 a 4.8233541,4.8233541 0 0 0 4.328583,2.66435 4.8445208,4.8445208 0 0 0 4.323292,-7.03262 4.8259999,4.8259999 0 0 0 -4.328584,-2.64584 4.8445208,4.8445208 0 0 0 -4.323291,7.01411 z"
         style="stroke-width:0.264583" />
      <path
         inkscape:connector-curvature="0"
         id="path857"
         fill="#0A73C4"
         d="m -3.9749513,147.87657 a 1.9923125,1.9923125 0 1 0 -2.6775833,-0.88371 1.9949583,1.9949583 0 0 0 2.6775833,0.88371 z"
         style="stroke-width:0.264583" />
      <path
         inkscape:connector-curvature="0"
         id="path859"
         fill="#0A73C4"
         d="m -16.254264,149.41909 a 2.8469166,2.8469166 0 1 0 3.823229,1.26206 2.8442708,2.8442708 0 0 0 -3.823229,-1.26206 z"
         style="stroke-width:0.264583" />
      <path
         inkscape:connector-curvature="0"
         id="path861"
         fill="#0A73C4"
         d="m -32.071055,132.52809 a 1.9923125,1.9923125 0 1 0 -1.875896,-2.10079 1.9923125,1.9923125 0 0 0 1.875896,2.10079 z"
         style="stroke-width:0.264583" />
      <path
         inkscape:connector-curvature="0"
         id="path863"
         fill="#0A73C4"
         d="m -32.092222,145.06669 a 2.8469166,2.8469166 0 1 0 -2.682875,-3.00566 2.8495625,2.8495625 0 0 0 2.682875,3.00566 z"
         style="stroke-width:0.264583" />
      <path
         inkscape:connector-curvature="0"
         id="path865"
         fill="#0A73C4"
         d="m -47.51743,174.12853 a 2.8469166,2.8469166 0 1 0 -3.823229,-1.25942 2.8469166,2.8469166 0 0 0 3.823229,1.25942 z"
         style="stroke-width:0.264583" />
      <path
         inkscape:connector-curvature="0"
         id="path867"
         fill="#0A73C4"
         d="m -30.253368,149.22065 a 4.8418749,4.8418749 0 1 0 4.056063,-2.1881 4.8471666,4.8471666 0 0 0 -4.056063,2.1881 z"
         style="stroke-width:0.264583" />
      <path
         inkscape:connector-curvature="0"
         id="path869"
         fill="#0A73C4"
         d="m -21.834326,169.46921 a 4.8418749,4.8418749 0 1 0 -4.323292,7.02205 4.8947916,4.8947916 0 0 0 2.180167,-0.52917 4.8445208,4.8445208 0 0 0 2.143125,-6.49288 z"
         style="stroke-width:0.264583" />
      <path
         inkscape:connector-curvature="0"
         id="path871"
         fill="#0A73C4"
         d="m -13.372951,169.13055 a 2.8469166,2.8469166 0 1 0 0.817562,3.94229 2.8522083,2.8522083 0 0 0 -0.817562,-3.94229 z"
         style="stroke-width:0.264583" />
      <path
         inkscape:connector-curvature="0"
         id="path873"
         fill="#0A73C4"
         d="m -4.1019513,161.85715 a 2.4182916,2.4182916 0 1 0 -2.5532291,2.27806 2.4209375,2.4209375 0 0 0 2.5532291,-2.27806 z"
         style="stroke-width:0.264583" />
      <path
         inkscape:connector-curvature="0"
         id="path875"
         fill="#0A73C4"
         d="m 2.5972986,160.13471 a 1.5663333,1.5663333 0 1 0 1.4737292,1.65365 1.5689791,1.5689791 0 0 0 -1.4737292,-1.65365 z"
         style="stroke-width:0.264583" />
      <path
         inkscape:connector-curvature="0"
         id="path877"
         fill="#0A73C4"
         d="m -3.710368,175.66576 a 1.9923125,1.9923125 0 1 0 0.5741459,2.7596 1.9923125,1.9923125 0 0 0 -0.5741459,-2.7596 z"
         style="stroke-width:0.264583" />
      <path
         inkscape:connector-curvature="0"
         id="path879"
         fill="#0A73C4"
         d="m -48.160367,190.28928 a 1.5663333,1.5663333 0 1 0 0.449791,2.16958 1.5663333,1.5663333 0 0 0 -0.449791,-2.16958 z"
         style="stroke-width:0.264583" />
      <path
         inkscape:connector-curvature="0"
         id="path881"
         fill="#0A73C4"
         d="m -15.330868,190.12523 a 1.5663333,1.5663333 0 1 0 2.103438,0.69321 1.5636875,1.5636875 0 0 0 -2.103438,-0.69321 z"
         style="stroke-width:0.264583" />
      <path
         inkscape:connector-curvature="0"
         id="path883"
         fill="#0A73C4"
         d="m -33.523618,174.31903 a 4.8418749,4.8418749 0 1 0 -4.053416,2.1881 4.8180624,4.8180624 0 0 0 4.053416,-2.1881 z"
         style="stroke-width:0.264583" />
      <path
         inkscape:connector-curvature="0"
         id="path885"
         fill="#0A73C4"
         d="m -43.19943,181.75117 a 2.4182916,2.4182916 0 1 0 0.6985,3.34963 2.4209375,2.4209375 0 0 0 -0.6985,-3.34963 z"
         style="stroke-width:0.264583" />
      <path
         inkscape:connector-curvature="0"
         id="path887"
         fill="#0A73C4"
         d="m -31.909659,191.01953 a 1.9923125,1.9923125 0 1 0 1.875896,2.10343 1.9923125,1.9923125 0 0 0 -1.875896,-2.10343 z"
         style="stroke-width:0.264583" />
      <path
         inkscape:connector-curvature="0"
         id="path889"
         fill="#0A73C4"
         d="m -31.888493,178.48357 a 2.8469166,2.8469166 0 1 0 2.669646,3.00302 2.8442708,2.8442708 0 0 0 -2.669646,-3.00302 z"
         style="stroke-width:0.264583" />
      <path
         inkscape:connector-curvature="0"
         id="path891"
         fill="#0A73C4"
         d="m -20.24418,181.55803 a 2.4209375,2.4209375 0 1 0 3.251729,1.05833 2.4156458,2.4156458 0 0 0 -3.251729,-1.05833 z"
         style="stroke-width:0.264583" />
    </g>
  </g>
</svg>
